<mxfile host="app.diagrams.net" modified="2024-05-27T22:31:45.114Z" agent="Mozilla/5.0 (Windows NT 10.0; Win64; x64) AppleWebKit/537.36 (KHTML, like Gecko) Chrome/125.0.0.0 Safari/537.36" etag="Ta2PZSZuCr3yghwWz27v" version="24.4.9" type="github">
  <diagram name="Page-1" id="kI1_xdDXOTbC90CseOl2">
    <mxGraphModel dx="2284" dy="1856" grid="1" gridSize="10" guides="1" tooltips="1" connect="1" arrows="1" fold="1" page="1" pageScale="1" pageWidth="850" pageHeight="1100" math="0" shadow="0">
      <root>
        <mxCell id="0" />
        <mxCell id="1" parent="0" />
        <mxCell id="mnL1hUUuzoaz7RUy0h3U-46" style="edgeStyle=orthogonalEdgeStyle;rounded=0;orthogonalLoop=1;jettySize=auto;html=1;exitX=1;exitY=0.65;exitDx=0;exitDy=0;exitPerimeter=0;" edge="1" parent="1" source="mnL1hUUuzoaz7RUy0h3U-1">
          <mxGeometry relative="1" as="geometry">
            <mxPoint x="150" y="-450" as="targetPoint" />
          </mxGeometry>
        </mxCell>
        <mxCell id="mnL1hUUuzoaz7RUy0h3U-1" value="Internet / SD WAN / IPSEC&amp;nbsp;&lt;div&gt;&lt;br&gt;&lt;/div&gt;" style="points=[[0,0.64,0],[0.2,0.15,0],[0.4,0.01,0],[0.79,0.25,0],[1,0.65,0],[0.8,0.86,0],[0.41,1,0],[0.16,0.86,0]];verticalLabelPosition=bottom;sketch=0;html=1;verticalAlign=top;aspect=fixed;align=center;pointerEvents=1;shape=mxgraph.cisco19.cloud;fillColor=#186180;strokeColor=none;" vertex="1" parent="1">
          <mxGeometry x="-180" y="-490" width="200" height="120" as="geometry" />
        </mxCell>
        <mxCell id="mnL1hUUuzoaz7RUy0h3U-23" style="edgeStyle=orthogonalEdgeStyle;rounded=0;orthogonalLoop=1;jettySize=auto;html=1;" edge="1" parent="1" source="mnL1hUUuzoaz7RUy0h3U-2" target="mnL1hUUuzoaz7RUy0h3U-10">
          <mxGeometry relative="1" as="geometry">
            <Array as="points">
              <mxPoint x="330" y="-415" />
              <mxPoint x="330" y="-215" />
            </Array>
          </mxGeometry>
        </mxCell>
        <mxCell id="mnL1hUUuzoaz7RUy0h3U-2" value="Cisco 350" style="sketch=0;points=[[0.015,0.015,0],[0.985,0.015,0],[0.985,0.985,0],[0.015,0.985,0],[0.25,0,0],[0.5,0,0],[0.75,0,0],[1,0.25,0],[1,0.5,0],[1,0.75,0],[0.75,1,0],[0.5,1,0],[0.25,1,0],[0,0.75,0],[0,0.5,0],[0,0.25,0]];verticalLabelPosition=bottom;html=1;verticalAlign=top;aspect=fixed;align=center;pointerEvents=1;shape=mxgraph.cisco19.rect;prIcon=l2_switch;fillColor=#FAFAFA;strokeColor=#005073;" vertex="1" parent="1">
          <mxGeometry x="260" y="-440" width="50" height="50" as="geometry" />
        </mxCell>
        <mxCell id="mnL1hUUuzoaz7RUy0h3U-3" value="Palo Alto&amp;nbsp;" style="sketch=0;points=[[0.015,0.015,0],[0.985,0.015,0],[0.985,0.985,0],[0.015,0.985,0],[0.25,0,0],[0.5,0,0],[0.75,0,0],[1,0.25,0],[1,0.5,0],[1,0.75,0],[0.75,1,0],[0.5,1,0],[0.25,1,0],[0,0.75,0],[0,0.5,0],[0,0.25,0]];verticalLabelPosition=bottom;html=1;verticalAlign=top;aspect=fixed;align=center;pointerEvents=1;shape=mxgraph.cisco19.rect;prIcon=firewall;fillColor=#FAFAFA;strokeColor=#005073;" vertex="1" parent="1">
          <mxGeometry x="120" y="-440" width="64" height="50" as="geometry" />
        </mxCell>
        <mxCell id="mnL1hUUuzoaz7RUy0h3U-8" value="" style="fontColor=#0066CC;verticalAlign=top;verticalLabelPosition=bottom;labelPosition=center;align=center;html=1;outlineConnect=0;fillColor=#CCCCCC;strokeColor=#6881B3;gradientColor=none;gradientDirection=north;strokeWidth=2;shape=mxgraph.networks.pc;" vertex="1" parent="1">
          <mxGeometry x="650" y="-380" width="70" height="60" as="geometry" />
        </mxCell>
        <mxCell id="mnL1hUUuzoaz7RUy0h3U-9" value="Cisco IP Phone" style="points=[[0.59,0,0],[0.87,0.015,0],[0.88,0.3,0],[0.99,0.99,0],[0.5,1,0],[0.01,0.99,0],[0.075,0.5,0],[0.17,0.115,0]];verticalLabelPosition=top;sketch=0;html=1;verticalAlign=bottom;aspect=fixed;align=center;pointerEvents=1;shape=mxgraph.cisco19.ip_phone;fillColor=#005073;strokeColor=none;labelPosition=center;" vertex="1" parent="1">
          <mxGeometry x="500" y="-620" width="57.49999999999999" height="50" as="geometry" />
        </mxCell>
        <mxCell id="mnL1hUUuzoaz7RUy0h3U-10" value="Aruba Wifi" style="points=[[0.03,0.36,0],[0.18,0,0],[0.5,0.34,0],[0.82,0,0],[0.97,0.36,0],[1,0.67,0],[0.975,0.975,0],[0.5,1,0],[0.025,0.975,0],[0,0.67,0]];verticalLabelPosition=bottom;sketch=0;html=1;verticalAlign=top;aspect=fixed;align=center;pointerEvents=1;shape=mxgraph.cisco19.wireless_access_point;fillColor=#005073;strokeColor=none;" vertex="1" parent="1">
          <mxGeometry x="270" y="-240" width="50" height="50" as="geometry" />
        </mxCell>
        <mxCell id="mnL1hUUuzoaz7RUy0h3U-11" value="Business Wifi" style="sketch=0;aspect=fixed;pointerEvents=1;shadow=0;dashed=0;html=1;strokeColor=none;labelPosition=center;verticalLabelPosition=bottom;verticalAlign=top;align=center;fillColor=#00188D;shape=mxgraph.mscae.enterprise.wireless_connection;rotation=0;" vertex="1" parent="1">
          <mxGeometry x="360" y="-230" width="42" height="50" as="geometry" />
        </mxCell>
        <mxCell id="mnL1hUUuzoaz7RUy0h3U-14" value="" style="fontColor=#0066CC;verticalAlign=top;verticalLabelPosition=bottom;labelPosition=center;align=center;html=1;outlineConnect=0;fillColor=#CCCCCC;strokeColor=#6881B3;gradientColor=none;gradientDirection=north;strokeWidth=2;shape=mxgraph.networks.pc;" vertex="1" parent="1">
          <mxGeometry x="650" y="-580" width="70" height="60" as="geometry" />
        </mxCell>
        <mxCell id="mnL1hUUuzoaz7RUy0h3U-15" value="" style="fontColor=#0066CC;verticalAlign=top;verticalLabelPosition=bottom;labelPosition=center;align=center;html=1;outlineConnect=0;fillColor=#CCCCCC;strokeColor=#6881B3;gradientColor=none;gradientDirection=north;strokeWidth=2;shape=mxgraph.networks.pc;" vertex="1" parent="1">
          <mxGeometry x="650" y="-480" width="70" height="60" as="geometry" />
        </mxCell>
        <mxCell id="mnL1hUUuzoaz7RUy0h3U-17" style="edgeStyle=orthogonalEdgeStyle;rounded=0;orthogonalLoop=1;jettySize=auto;html=1;entryX=0;entryY=0.5;entryDx=0;entryDy=0;entryPerimeter=0;" edge="1" parent="1" target="mnL1hUUuzoaz7RUy0h3U-8">
          <mxGeometry relative="1" as="geometry">
            <mxPoint x="350" y="-450" as="sourcePoint" />
          </mxGeometry>
        </mxCell>
        <mxCell id="mnL1hUUuzoaz7RUy0h3U-18" style="edgeStyle=orthogonalEdgeStyle;rounded=0;orthogonalLoop=1;jettySize=auto;html=1;entryX=0;entryY=0.5;entryDx=0;entryDy=0;entryPerimeter=0;" edge="1" parent="1" target="mnL1hUUuzoaz7RUy0h3U-15">
          <mxGeometry relative="1" as="geometry">
            <mxPoint x="350" y="-450" as="sourcePoint" />
          </mxGeometry>
        </mxCell>
        <mxCell id="mnL1hUUuzoaz7RUy0h3U-21" style="edgeStyle=orthogonalEdgeStyle;rounded=0;orthogonalLoop=1;jettySize=auto;html=1;entryX=-0.087;entryY=0.6;entryDx=0;entryDy=0;entryPerimeter=0;" edge="1" parent="1" target="mnL1hUUuzoaz7RUy0h3U-9">
          <mxGeometry relative="1" as="geometry">
            <mxPoint x="300" y="-450" as="sourcePoint" />
          </mxGeometry>
        </mxCell>
        <mxCell id="mnL1hUUuzoaz7RUy0h3U-22" style="edgeStyle=orthogonalEdgeStyle;rounded=0;orthogonalLoop=1;jettySize=auto;html=1;exitX=0.5;exitY=1;exitDx=0;exitDy=0;exitPerimeter=0;entryX=0;entryY=0.5;entryDx=0;entryDy=0;entryPerimeter=0;" edge="1" parent="1" source="mnL1hUUuzoaz7RUy0h3U-9" target="mnL1hUUuzoaz7RUy0h3U-14">
          <mxGeometry relative="1" as="geometry" />
        </mxCell>
        <mxCell id="mnL1hUUuzoaz7RUy0h3U-24" value="Guest Wifi" style="sketch=0;aspect=fixed;pointerEvents=1;shadow=0;dashed=0;html=1;strokeColor=none;labelPosition=left;verticalLabelPosition=middle;verticalAlign=middle;align=center;fillColor=#00188D;shape=mxgraph.mscae.enterprise.wireless_connection;rotation=90;direction=south;textDirection=rtl;horizontal=0;" vertex="1" parent="1">
          <mxGeometry x="184" y="-226" width="50" height="42" as="geometry" />
        </mxCell>
        <mxCell id="mnL1hUUuzoaz7RUy0h3U-26" value="" style="sketch=0;aspect=fixed;pointerEvents=1;shadow=0;dashed=0;html=1;strokeColor=none;labelPosition=center;verticalLabelPosition=bottom;verticalAlign=top;align=center;fillColor=#00188D;shape=mxgraph.azure.laptop" vertex="1" parent="1">
          <mxGeometry x="363.75" y="-140" width="50" height="30" as="geometry" />
        </mxCell>
        <mxCell id="mnL1hUUuzoaz7RUy0h3U-27" value="" style="verticalLabelPosition=bottom;html=1;verticalAlign=top;align=center;strokeColor=none;fillColor=#00BEF2;shape=mxgraph.azure.mobile;pointerEvents=1;" vertex="1" parent="1">
          <mxGeometry x="190" y="-150" width="20" height="40" as="geometry" />
        </mxCell>
        <mxCell id="mnL1hUUuzoaz7RUy0h3U-28" style="edgeStyle=orthogonalEdgeStyle;rounded=0;orthogonalLoop=1;jettySize=auto;html=1;entryX=0;entryY=0.5;entryDx=0;entryDy=0;entryPerimeter=0;" edge="1" parent="1" source="mnL1hUUuzoaz7RUy0h3U-3" target="mnL1hUUuzoaz7RUy0h3U-2">
          <mxGeometry relative="1" as="geometry" />
        </mxCell>
        <mxCell id="mnL1hUUuzoaz7RUy0h3U-47" value="" style="edgeStyle=orthogonalEdgeStyle;rounded=0;orthogonalLoop=1;jettySize=auto;html=1;" edge="1" parent="1" source="mnL1hUUuzoaz7RUy0h3U-32" target="mnL1hUUuzoaz7RUy0h3U-35">
          <mxGeometry relative="1" as="geometry" />
        </mxCell>
        <mxCell id="mnL1hUUuzoaz7RUy0h3U-32" value="Azure Instance" style="verticalLabelPosition=bottom;html=1;verticalAlign=top;align=center;strokeColor=none;fillColor=#00BEF2;shape=mxgraph.azure.azure_instance;" vertex="1" parent="1">
          <mxGeometry x="-40" y="-630" width="50" height="50" as="geometry" />
        </mxCell>
        <mxCell id="mnL1hUUuzoaz7RUy0h3U-35" value="Azure AD" style="image;aspect=fixed;html=1;points=[];align=center;fontSize=12;image=img/lib/azure2/identity/Azure_AD_B2C.svg;" vertex="1" parent="1">
          <mxGeometry x="20" y="-740" width="69" height="64" as="geometry" />
        </mxCell>
        <mxCell id="mnL1hUUuzoaz7RUy0h3U-36" style="edgeStyle=orthogonalEdgeStyle;rounded=0;orthogonalLoop=1;jettySize=auto;html=1;entryX=0.4;entryY=0.01;entryDx=0;entryDy=0;entryPerimeter=0;" edge="1" parent="1" source="mnL1hUUuzoaz7RUy0h3U-32" target="mnL1hUUuzoaz7RUy0h3U-1">
          <mxGeometry relative="1" as="geometry">
            <Array as="points">
              <mxPoint x="-65" y="-560" />
              <mxPoint x="-100" y="-560" />
            </Array>
          </mxGeometry>
        </mxCell>
        <mxCell id="mnL1hUUuzoaz7RUy0h3U-38" value="Automation/Orchestration" style="image;aspect=fixed;perimeter=ellipsePerimeter;html=1;align=center;shadow=0;dashed=0;fontColor=#000000;labelBackgroundColor=default;fontSize=12;spacingTop=3;image=img/lib/ibm/applications/automation_tools.svg;labelPosition=center;verticalLabelPosition=top;verticalAlign=bottom;" vertex="1" parent="1">
          <mxGeometry x="-200" y="-690" width="60" height="60" as="geometry" />
        </mxCell>
        <mxCell id="mnL1hUUuzoaz7RUy0h3U-40" value="Cisco 350 HA" style="sketch=0;points=[[0.015,0.015,0],[0.985,0.015,0],[0.985,0.985,0],[0.015,0.985,0],[0.25,0,0],[0.5,0,0],[0.75,0,0],[1,0.25,0],[1,0.5,0],[1,0.75,0],[0.75,1,0],[0.5,1,0],[0.25,1,0],[0,0.75,0],[0,0.5,0],[0,0.25,0]];verticalLabelPosition=top;html=1;verticalAlign=bottom;aspect=fixed;align=center;pointerEvents=1;shape=mxgraph.cisco19.rect;prIcon=l2_switch;fillColor=#FAFAFA;strokeColor=#005073;labelPosition=center;" vertex="1" parent="1">
          <mxGeometry x="260" y="-520" width="50" height="50" as="geometry" />
        </mxCell>
        <mxCell id="mnL1hUUuzoaz7RUy0h3U-41" value="Palo Alto HA" style="sketch=0;points=[[0.015,0.015,0],[0.985,0.015,0],[0.985,0.985,0],[0.015,0.985,0],[0.25,0,0],[0.5,0,0],[0.75,0,0],[1,0.25,0],[1,0.5,0],[1,0.75,0],[0.75,1,0],[0.5,1,0],[0.25,1,0],[0,0.75,0],[0,0.5,0],[0,0.25,0]];verticalLabelPosition=top;html=1;verticalAlign=bottom;aspect=fixed;align=center;pointerEvents=1;shape=mxgraph.cisco19.rect;prIcon=firewall;fillColor=#FAFAFA;strokeColor=#005073;labelPosition=center;" vertex="1" parent="1">
          <mxGeometry x="120" y="-520" width="64" height="50" as="geometry" />
        </mxCell>
        <mxCell id="mnL1hUUuzoaz7RUy0h3U-42" style="edgeStyle=orthogonalEdgeStyle;rounded=0;orthogonalLoop=1;jettySize=auto;html=1;entryX=0.5;entryY=1;entryDx=0;entryDy=0;entryPerimeter=0;" edge="1" parent="1" source="mnL1hUUuzoaz7RUy0h3U-2" target="mnL1hUUuzoaz7RUy0h3U-40">
          <mxGeometry relative="1" as="geometry" />
        </mxCell>
        <mxCell id="mnL1hUUuzoaz7RUy0h3U-44" style="edgeStyle=orthogonalEdgeStyle;rounded=0;orthogonalLoop=1;jettySize=auto;html=1;entryX=0.5;entryY=1;entryDx=0;entryDy=0;entryPerimeter=0;" edge="1" parent="1" source="mnL1hUUuzoaz7RUy0h3U-3" target="mnL1hUUuzoaz7RUy0h3U-41">
          <mxGeometry relative="1" as="geometry" />
        </mxCell>
        <mxCell id="mnL1hUUuzoaz7RUy0h3U-50" style="edgeStyle=orthogonalEdgeStyle;rounded=0;orthogonalLoop=1;jettySize=auto;html=1;entryX=0.4;entryY=0.01;entryDx=0;entryDy=0;entryPerimeter=0;" edge="1" parent="1" source="mnL1hUUuzoaz7RUy0h3U-38" target="mnL1hUUuzoaz7RUy0h3U-1">
          <mxGeometry relative="1" as="geometry" />
        </mxCell>
        <mxCell id="mnL1hUUuzoaz7RUy0h3U-51" value="Cisco Cloud PBX" style="sketch=0;pointerEvents=1;shadow=0;dashed=0;html=1;strokeColor=none;fillColor=#505050;labelPosition=center;verticalLabelPosition=bottom;verticalAlign=top;outlineConnect=0;align=center;shape=mxgraph.office.devices.ip_pbx;" vertex="1" parent="1">
          <mxGeometry x="-270" y="-560" width="59" height="39" as="geometry" />
        </mxCell>
        <mxCell id="mnL1hUUuzoaz7RUy0h3U-52" value="MPLS Circuit" style="edgeStyle=orthogonalEdgeStyle;rounded=0;orthogonalLoop=1;jettySize=auto;html=1;entryX=0.4;entryY=0.01;entryDx=0;entryDy=0;entryPerimeter=0;align=right;" edge="1" parent="1" source="mnL1hUUuzoaz7RUy0h3U-51" target="mnL1hUUuzoaz7RUy0h3U-1">
          <mxGeometry relative="1" as="geometry">
            <Array as="points">
              <mxPoint x="-100" y="-550" />
            </Array>
          </mxGeometry>
        </mxCell>
      </root>
    </mxGraphModel>
  </diagram>
</mxfile>
